PathFileType	4	(X/Y/Z)	C:/Users/opensim2020/Desktop/walking_exp_matlab/subject06_walking12_straigt_04.trc																																																																																																																																														
DataRate	CameraRate	NumFrames	NumMarkers	Units	OrigDataRate	OrigDataStartFrame	OrigNumFrames																																																																																																																																										
100	100	5	48	mm	100	2856	181																																																																																																																																										
Frame#	Time	LFHD			RFHD			LBHD			RBHD			C7			T10			CLAV			STRN			RBAK			LSHO			LUPA			LELB			LFRM			LWRA			LWRB			LFIN			RSHO			RUPA			RELB			RFRM			RWRA			RWRB			RFIN			LASI			RASI			LPSI			RPSI			LTHI			LKNE			LTIB			LANK			LHEE			LTOE			RTHI			RKNE			RTIB			RANK			RHEE			RTOE			*39			*40			*41			*42			*43			*44			*45			*46			*47		
		X1	Y1	Z1	X2	Y2	Z2	X3	Y3	Z3	X4	Y4	Z4	X5	Y5	Z5	X6	Y6	Z6	X7	Y7	Z7	X8	Y8	Z8	X9	Y9	Z9	X10	Y10	Z10	X11	Y11	Z11	X12	Y12	Z12	X13	Y13	Z13	X14	Y14	Z14	X15	Y15	Z15	X16	Y16	Z16	X17	Y17	Z17	X18	Y18	Z18	X19	Y19	Z19	X20	Y20	Z20	X21	Y21	Z21	X22	Y22	Z22	X23	Y23	Z23	X24	Y24	Z24	X25	Y25	Z25	X26	Y26	Z26	X27	Y27	Z27	X28	Y28	Z28	X29	Y29	Z29	X30	Y30	Z30	X31	Y31	Z31	X32	Y32	Z32	X33	Y33	Z33	X34	Y34	Z34	X35	Y35	Z35	X36	Y36	Z36	X37	Y37	Z37	X38	Y38	Z38	X39	Y39	Z39	X40	Y40	Z40	X41	Y41	Z41	X42	Y42	Z42	X43	Y43	Z43	X44	Y44	Z44	X45	Y45	Z45	X46	Y46	Z46	X47	Y47	Z47	X48	Y48	Z48
																																																																																																																																																	
91	0.9	-1512.95276	1655.1853	172.96805	-1381.17896	1643.17065	176.43967	-1516.72144	1597.2572	305.17807	-1387.64832	1591.53809	307.33014	-1454.40857	1440.5625	305.31381	-1439.35144	1110.77917	334.96768	-1455.31079	1365.05164	194.34305	-1456.41382	1191.0929	152.21167	-1365.57495	1272.2821	374.18097	-1615.96301	1392.84619	256.71173	-1680.79626	1198.36987	310.04095	-1685.63892	1091.99854	348.44626	-1701.62695	942.56592	371.00266	-1647.74487	816.53662	355.96024	-1694.36292	829.48566	408.36371	-1683.70874	738.62872	400.0076	-1294.04321	1401.14282	235.92365	-1199.44934	1203.88562	250.40366	-1186.73462	1087.18958	218.21219	-1180.80627	989.87579	150.31136	-1233.14697	908.02887	33.87446	-1190.7915	876.59448	74.6609	-1196.7959	836.3172	2.84267	-1549.70752	963.16144	141.806	-1331.76978	954.90424	158.28722	-1531.85938	983.1991	304.44058	-1364.01733	978.2027	308.46814	-1619.53772	652.65125	150.49944	-1589.3158	494.99042	114.44055	-1576.55933	236.95143	115.00797	-1529.25	68.08498	99.63456	-1482.80811	53.12783	137.75024	-1522.64758	44.16965	-46.37442	-1276.02417	617.74518	239.72475	-1285.10242	490.01736	248.04529	-1299.63452	306.31744	443.64511	-1348.23328	176.03693	574.15808	-1397.13782	187.17662	611.59998	-1354.65906	40.91606	500.74026	-1455.86963	1690.81653	275.71512	NaN	NaN	NaN	NaN	NaN	NaN	NaN	NaN	NaN	NaN	NaN	NaN	NaN	NaN	NaN	NaN	NaN	NaN	NaN	NaN	NaN	NaN	NaN	NaN
92	0.91	-1514.29211	1655.77747	161.93085	-1382.47461	1644.03967	165.65741	-1518.18445	1598.19653	294.35846	-1388.98853	1592.79321	296.84207	-1455.64893	1441.06653	294.62994	-1440.82434	1111.6864	323.66306	-1456.12439	1366.07629	183.43263	-1457.07434	1192.36121	140.71196	-1366.7854	1272.86279	363.36304	-1616.92847	1393.87793	245.09848	-1682.02063	1198.84753	296.27704	-1687.01697	1092.19434	333.60809	-1703.28833	942.58667	354.59323	-1649.81543	816.47504	338.59482	-1696.36792	829.15808	390.83408	-1685.55566	738.27527	382.03409	-1295.25586	1402.31763	225.96027	-1200.80249	1205.20081	241.07848	-1188.92834	1087.91956	210.37814	-1182.57397	989.03448	144.30664	-1234.44226	904.22894	29.49206	-1192.13733	873.91797	71.42514	-1197.87805	831.81232	0.27434	-1551.57703	964.69421	130.3015	-1333.59436	955.68182	147.34378	-1533.53748	984.64941	292.71756	-1365.92615	978.57404	297.40363	-1621.03125	653.5675	140.54071	-1590.68958	495.22397	107.02541	-1577.03796	237.01138	110.98997	-1529.0061	68.22251	98.8027	-1482.82886	53.4577	137.39105	-1522.73022	43.51822	-47.0717	-1275.37085	617.71893	223.87816	-1283.14905	489.71625	229.03004	-1299.09924	310.89539	425.64539	-1348.59253	185.26207	560.02893	-1397.75012	199.03102	596.21527	-1354.12622	44.64759	495.17023	-1457.47498	1691.78442	264.76059	NaN	NaN	NaN	NaN	NaN	NaN	NaN	NaN	NaN	NaN	NaN	NaN	NaN	NaN	NaN	NaN	NaN	NaN	NaN	NaN	NaN	NaN	NaN	NaN
93	0.92	-1515.57068	1656.4469	150.88013	-1383.66577	1644.95251	155.11188	-1519.53662	1599.0094	283.60962	-1390.36377	1593.88	286.25922	-1457.05139	1441.67249	283.94339	-1442.42468	1112.45361	312.42941	-1456.88892	1367.04517	172.45139	-1457.67798	1193.39612	129.40523	-1368.0824	1273.38647	352.70352	-1617.91125	1394.85083	233.48799	-1683.23425	1199.27747	282.48831	-1688.47473	1092.31262	318.60754	-1705.08032	942.46936	337.78064	-1651.68713	816.54767	320.16583	-1698.33057	828.72034	372.78226	-1687.63245	737.79053	363.177	-1296.36548	1403.31506	216.06544	-1202.09326	1206.22559	231.79092	-1190.89539	1088.36218	202.72043	-1184.23328	987.98651	138.6442	-1235.70044	900.21295	25.66642	-1193.25867	870.96704	68.30887	-1199.17407	826.94727	-1.90769	-1553.28479	965.77258	118.97072	-1335.12695	956.12469	136.90607	-1535.20447	985.94537	281.35971	-1367.78394	978.77087	286.80283	-1622.37268	653.98718	131.86975	-1592.0686	494.97775	100.64632	-1577.56641	236.8194	107.57611	-1528.78979	68.20186	98.13998	-1482.75464	53.82137	137.00047	-1522.33655	42.96486	-47.83062	-1274.7157	617.59387	208.44373	-1281.66479	489.5015	209.86685	-1298.71399	314.89572	406.61505	-1348.90662	194.43471	544.58856	-1398.229	210.56546	579.23608	-1353.49133	48.6601	488.7598	-1459.01221	1692.70129	253.97038	NaN	NaN	NaN	NaN	NaN	NaN	NaN	NaN	NaN	NaN	NaN	NaN	NaN	NaN	NaN	NaN	NaN	NaN	NaN	NaN	NaN	NaN	NaN	NaN
94	0.93	-1516.6488	1657.1311	140.28392	-1384.80261	1645.95874	144.64336	-1520.87549	1599.76062	272.8671	-1391.69995	1594.89709	275.81497	-1458.19336	1442.3634	273.1283	-1444.10046	1113.1438	301.341	-1457.60425	1367.91785	161.64532	-1458.32715	1194.25769	118.3168	-1369.72852	1273.89917	342.18649	-1618.94446	1395.75366	221.92456	-1684.44397	1199.68115	268.93472	-1690.09143	1092.26038	303.60834	-1706.99268	942.25677	320.80032	-1653.97693	816.46075	301.23001	-1700.3186	827.99915	354.27216	-1689.91479	737.2099	343.61087	-1297.33923	1404.06738	206.08397	-1203.2063	1206.90723	222.71085	-1192.61658	1088.47107	195.39079	-1185.8009	986.61487	133.28265	-1236.83899	895.93585	21.98521	-1194.09692	867.97852	65.36328	-1200.42871	821.82135	-3.61793	-1554.71509	966.42181	107.94946	-1336.2948	956.42401	126.50279	-1537.07483	986.8847	270.24969	-1369.70996	978.81348	276.5621	-1623.49609	654.0376	124.31304	-1593.31506	494.59418	94.75541	-1577.97693	236.58624	104.67077	-1528.52734	68.15999	97.45105	-1482.60364	54.29514	136.9034	-1522.08325	42.445	-48.50017	-1274.48779	617.56824	193.17879	-1280.70508	489.50201	190.63309	-1298.21277	318.72974	387.12939	-1349.20459	202.78079	527.85608	-1398.66736	221.10506	561.03748	-1352.88171	52.35493	482.07175	-1460.45947	1693.58203	243.32526	NaN	NaN	NaN	NaN	NaN	NaN	NaN	NaN	NaN	NaN	NaN	NaN	NaN	NaN	NaN	NaN	NaN	NaN	NaN	NaN	NaN	NaN	NaN	NaN
95	0.94	-1517.78906	1658.02185	129.55769	-1385.87573	1647.01794	134.23335	-1522.00391	1600.50525	262.06207	-1392.83264	1595.85352	265.35431	-1459.38464	1443.22217	262.30594	-1445.78467	1113.77075	290.46741	-1458.28979	1368.89233	150.76088	-1458.99792	1195.03857	107.4117	-1371.40466	1274.43542	331.75595	-1619.95764	1396.54004	210.33705	-1685.9585	1199.84827	254.7946	-1691.76636	1092.06897	288.46777	-1708.89514	941.83966	303.51285	-1656.24963	816.32996	281.89188	-1702.33704	827.21161	335.23572	-1692.81189	736.76459	322.80936	-1298.02063	1404.69128	196.01434	-1204.22119	1207.28503	213.85353	-1194.05444	1088.23767	188.21309	-1187.25989	984.97992	128.12122	-1237.83081	891.47943	18.63113	-1195.10925	864.61591	63.00632	-1201.57788	816.48608	-4.65766	-1555.90564	966.80707	97.18622	-1337.22485	956.65778	116.40934	-1538.80701	987.74408	259.45923	-1371.55151	978.79114	266.5762	-1624.54553	654.00421	117.15102	-1594.35315	494.2345	88.83649	-1578.26001	236.40802	102.4665	-1528.26575	68.10466	96.86801	-1482.58459	54.1841	136.18015	-1522.10461	42.09916	-48.9396	-1274.59753	617.70221	178.10144	-1280.20972	490.07471	171.43987	-1297.7561	322.0892	366.83084	-1349.58215	210.19533	510.26764	-1399.25854	230.1613	541.60864	-1351.79395	56.70128	472.95267	-1461.78284	1694.45569	232.86476	NaN	NaN	NaN	NaN	NaN	NaN	NaN	NaN	NaN	NaN	NaN	NaN	NaN	NaN	NaN	NaN	NaN	NaN	NaN	NaN	NaN	NaN	NaN	NaN
